<svg viewBox="0 0 62 75" style="fill: #003476;">
                    <path d="M56,75h-50c-3.3,0-6-2.7-6-6V6c0-3.3,2.7-6,6-6h50c3.3,0,6,2.7,6,6v63C62,72.3,59.3,75,56,75z M5.9,4
                      c-1.1,0-2,0.9-2,2v63c0,1.1,0.9,2,2,2h50c1.1,0,2-0.9,2-2V6c0-1.1-0.9-2-2-2H5.9z"></path>
                    <path d="M12.6,10.5h36.3c1.4,0,2.6,1.2,2.6,2.6v0c0,1.4-1.2,2.6-2.6,2.6H12.6c-1.4,0-2.6-1.2-2.6-2.6v0C10,11.6,11.2,10.5,12.6,10.5
                      z"></path>
                    <path d="M12.6,20.1h21.9c1.4,0,2.6,1.2,2.6,2.6v0c0,1.4-1.2,2.6-2.6,2.6H12.6c-1.4,0-2.6-1.2-2.6-2.6v0C10,21.2,11.2,20.1,12.6,20.1
                      z"></path>
                    <path d="M12.7,49.1c-1.1,0-2-0.9-2-2c0-0.5,0.2-1,0.6-1.4l12.3-12.8c0.7-0.7,1.9-0.8,2.7-0.2l8.3,6.6L47,27.8
                      c0.8-0.8,2.1-0.8,2.8,0c0.8,0.8,0.8,2.1,0,2.8c0,0-0.1,0.1-0.1,0.1L36,43.4c-0.7,0.7-1.8,0.7-2.6,0.1l-8.2-6.5L14.1,48.5
                      C13.7,48.8,13.2,49.1,12.7,49.1z"></path>
                    <path d="M16.3,55.2L16.3,55.2c1.7,0,3,1.3,3,3v5.2c0,1.7-1.3,3-3,3l0,0c-1.7,0-3-1.3-3-3v-5.2C13.3,56.5,14.6,55.2,16.3,55.2z"></path>
                    <path d="M35.9,52.5L35.9,52.5c1.7,0,3,1.3,3,3v7.8c0,1.7-1.3,3-3,3l0,0c-1.7,0-3-1.3-3-3v-7.8C32.9,53.9,34.2,52.5,35.9,52.5z"></path>
                    <path d="M25.7,46L25.7,46c1.7,0,3,1.3,3,3v14.3c0,1.7-1.3,3-3,3l0,0c-1.7,0-3-1.3-3-3V49C22.7,47.4,24.1,46,25.7,46z"></path>
                    <path d="M44.9,46L44.9,46c1.7,0,3,1.3,3,3v14.3c0,1.7-1.3,3-3,3l0,0c-1.7,0-3-1.3-3-3V49C41.9,47.4,43.2,46,44.9,46z"></path>
                  </svg>