<svg xmlns="http://www.w3.org/2000/svg" viewBox="0 0 7568.17 3143.66"><defs><style>.cls-1{fill:#fff;}.cls-2{fill:#ffcb05;}</style></defs><title>BrewCafe_logo</title><g id="Layer_2" data-name="Layer 2"><g id="Layer_1-2" data-name="Layer 1"><g id="_Group_" data-name="&lt;Group&gt;"><path id="_Compound_Path_" data-name="&lt;Compound Path&gt;" class="cls-1" d="M689.8,649.56V579.18q0-36.75,3.67-63.53a291.42,291.42,0,0,1,9.95-47.25,185.82,185.82,0,0,1,14.67-35.72A181.32,181.32,0,0,1,737,404.83q27.27-34.6,68.23-60.37t87.13-25.71q34.73,0,59.37,9.95c16.4,6.66,30,14.89,40.43,24.71s18.22,20.48,23.14,32,7.33,21.92,7.33,31a63.31,63.31,0,0,1-11.57,36.7q-11.55,16.81-38.87,16.78c-9.08,0-19.38-2-30.91-6.21s-17.38-13.27-17.38-27.37a53.93,53.93,0,0,1,10-31.95,54.92,54.92,0,0,0,10-32.1q0-23-18.91-30.93a99.35,99.35,0,0,0-38.88-7.85c-28.74,0-53.5,12.57-74.51,37.74S780,435.65,780,488.92v145.9h0v14.74h0l-.17,343.07H690Z"/><path id="_Compound_Path_2" data-name="&lt;Compound Path&gt;" class="cls-1" d="M930.73,609.13h0V596.19h79.42l.08,396.44h-79.5Z"/><path id="_Compound_Path_3" data-name="&lt;Compound Path&gt;" class="cls-1" d="M1106.85,609.13h-.07V596.19h77.69v98.9h1.81c3.74-8,9.18-18.16,16.28-30.51s16.7-24.34,29.08-36.06,27.66-21.7,46.17-30,41-12.53,67.49-12.53q60.95,0,99.38,29.54Q1483,645.24,1483,709.83v282.8h-79.23V681.21c0-24-6-43.75-17.32-59.14s-29.17-23.1-53.2-23.1a127.89,127.89,0,0,0-56.31,12.94,148.46,148.46,0,0,0-47.08,36,171,171,0,0,0-31.88,54.54q-11.67,31.47-11.65,68.43l0,221.78h-79.54Z"/><path id="_Compound_Path_4" data-name="&lt;Compound Path&gt;" class="cls-1" d="M1878,890.93q-2.57,10.25-9.9,29.1c-4.93,12.59-12.64,25.29-23.25,37.86s-25,23.72-43,33.33-41.43,14.31-70.16,14.31q-32.7,0-67.93-11.11a186.54,186.54,0,0,1-64.57-35.56q-29.31-24.45-47.84-64.23t-18.51-98q0-45.21,15.93-84.07t43.07-67.46a197.13,197.13,0,0,1,63.66-44.78,190.15,190.15,0,0,1,78-16.17,199.65,199.65,0,0,1,47.71,6,154.25,154.25,0,0,1,44.83,18.48A109.46,109.46,0,0,1,1859.46,641c8.91,13.27,13.3,29.44,13.3,48.53,0,12.92-3.81,23.6-11.57,31.88s-18.82,12.48-33.11,12.48a59.94,59.94,0,0,1-28-6.94q-13.36-6.95-13.38-23.53c0-8.65,2-19.14,6-31.4s6-22.49,6-30.55c0-14.1-6.63-25.07-19.77-32.75s-28.41-11.59-45.61-11.59a159.86,159.86,0,0,0-39.17,5.11c-13.5,3.36-25.9,11.84-37,25.36s-20.39,33.93-27.54,61-10.79,64.08-10.79,110.86a554.62,554.62,0,0,0,4.77,74.83c3.16,23.46,8.85,43.9,17.22,61.45s19.81,31.44,34.45,41.58,33.73,15.3,57.18,15.3q37.88,0,62.44-12.1c16.39-7.94,29.21-17.62,38.72-29a129,129,0,0,0,21.1-34.64c4.57-11.73,8-21.33,10.3-28.69Z"/><path id="_Compound_Path_5" data-name="&lt;Compound Path&gt;" class="cls-1" d="M1939.23,326.31h79.48V689.5h1.83c3-8,8.33-18,15.68-30s17.45-23.41,30-34.22,28.06-20,46.13-27.65q27.4-11.58,65.25-11.61,61,0,99.3,29.54c25.62,19.79,37.48,51.16,37.48,94.28v282.8h-78.23V681.21c0-24-6-43.75-17.51-59.14s-29-23.1-53.08-23.1a128.15,128.15,0,0,0-56.37,12.94,149.32,149.32,0,0,0-47.1,36q-20.31,23.21-31.92,54.54c-7.65,21-11,43.78-11,68.43V992.63h-80Z"/><path id="_Path_" data-name="&lt;Path&gt;" class="cls-1" d="M1033.5,59.8s-35.2-98.66-96.7-42.53L637.32,352.58s84-44,134.57-76.85c0,0,111.48,97,208.88,0,0,0,66.85-66.44,22-159.49C1002.76,116.24,972.83,61.39,1033.5,59.8Z"/><rect id="_Path_2" data-name="&lt;Path&gt;" class="cls-1" x="542.45" y="595.94" width="148.01" height="31.07"/></g><path class="cls-1" d="M1438.42,2609.81q22.8-28.07,50.71-77.44t54.21-100.16q26.29-50.79,45.47-93.74t24.62-55.24q7.93-24.39,7.47-34.92t-6.53-11.74c-4.07-.8-8,.36-11.87,3.53a82.21,82.21,0,0,0-8.67,7.91q-27.52,58.39-61.69,135.07t-72.9,153.62q-14.12,21.71-42.7,54.53t-61.38,40.32q-42.47-7.14-42.59-44.73t12.87-83.28q7.53-33.4,36-102.37T1425.13,2242q35.05-90.24,75.6-194.35t72.13-204.7q35-91.79,75.67-192.85t91-186q50.4-84.91,106.66-138.57t122.58-50.55q57.26,3.52,88.54,63.76t17.5,157.12a1294.32,1294.32,0,0,1-27,138,939.19,939.19,0,0,1-46.48,138.92q-28.59,67.45-66.78,121.76t-85,83.49q-3,.12-31.91-7.62a242.39,242.39,0,0,0-62-7.79,166.81,166.81,0,0,0-62.64,11.81q-29.58,11.88-30.7,54a155.13,155.13,0,0,1-.42,24.08c-.78,6.05,1,13,5.42,20.81q12.76,17.49,55.1,21.62l22.51-1a236.56,236.56,0,0,0,35.89-4.6q19.37-3.82,35.82-6.1c9.81-1.32,16.42-2.05,20.69-2.33-2.61.21-3.1,1.19-1.1,3q85.47,29.36,111.29,101.85t8.68,162q-17.1,89.52-68.63,182t-117.79,158.61a353.73,353.73,0,0,1-60.84,52.32,497.92,497.92,0,0,1-70.39,40.73q-35.37,16.59-71.44,16.7t-58.17-23c-5.92-6.61-15.79-26.83-21.82-17.09-3,4.83-4.52,11.2-2.06,21.15,2.32,7.89,4.72,16.33,7.12,25.24s8.75,17.15,19.15,24.74c9.6,11.88,21.36,22,34.11,31.36,19.49.73,40.65,1.82,63.68,3.4,10.53.72,20.56,1.19,30.26,1.5,3.74-.08,7.62-.17,11.91-.37a331,331,0,0,0,98.39-19.4,955.75,955.75,0,0,0,88.6-37q103-49.7,174.64-131.06t108.2-171.73q36.6-90.29,41.62-180.8t-25.07-158.3q-30.06-67.83-94.92-105.58T1876.23,2037l-30,1.33-6,.27-3,.13c-5.62,2.17-16,3.6-30.66,4.34,3.56-.25,13.63-1.66,30.66-4.34,4-.17,6-1.24,5.86-3.26l3.14,2.86q133.76-35.94,221.92-116.59t136.5-177.5q48.3-96.89,63.34-199.82t2.13-189.58q-12.09-68.62-53.76-127t-103-84.17q-61.35-25.82-135.74-9t-146.17,95.2q-48.82,53.36-96.09,139.62a1902.18,1902.18,0,0,0-88.07,184.37q15.78-118-12.48-179.91t-65.67-90.33q-44.07-43.17-96.12-64.93a458.88,458.88,0,0,0-91.78-35,547.35,547.35,0,0,0-103-16.48,667.38,667.38,0,0,0-230.42,26.75Q935,1227.56,841.69,1293.28A634,634,0,0,0,683.36,1453.7q-65,94.68-83.81,212.76-16.57,100-1.28,174.5t46.11,124.28q30.84,49.83,68.19,79.71t64.84,37.72q88.64,32.16,154.16,17.23t102-40.61q36.43-25.66,40.11-45.39t-31.59-.1q-64.47,38.94-123.14,4t-92.52-119.22q-33.81-84.22-27.31-209.33t72.53-263.4q43.88-95.11,117.09-140.53t146.14-62.11q72.93-16.79,133.26-13.43t78.7,11.54q42.67,13.2,83.65,55c27.26,27.87,45.19,73.45,48.51,145.34l.1,1.38c-4.22,40.33-8.16,87.12-23.57,146.92s-34.12,123.85-56.17,192-46,138.42-71.85,210.72-50.45,140.6-73.64,204.79-43.27,121.23-60.09,171.09-27.69,88-32.54,114.23q-12,69.77-9.82,117.75t36.48,76.59q24.8,16.93,59.53,19.92a278.14,278.14,0,0,0,70.55-3.13,219.11,219.11,0,0,0,66.68-22.51A198.45,198.45,0,0,0,1438.42,2609.81ZM1805.7,2043.1l-1.38.08-3,.13c-10,.45-9-.08,2.94-1.64,2.65-.33,4.6-.76,7-1.13-1.27.33-3.08.74-4,1C1803.38,2042.71,1803,2043.19,1805.7,2043.1Z"/><path class="cls-2" d="M722.67,2754.68c-1-3.54-2.22-7.25-3.47-11-2.6-7.85-5.71-16.2-9.32-24.81a322,322,0,0,0-14.43-30.2c-15.48-28.42-37.14-57.68-67.39-82.17a247.8,247.8,0,0,0-23.76-16.89c-6.12-3.87-12.42-7.61-19.13-11.05-.52-.27-1.08-.49-1.61-.76q-6.72-3.39-13.65-6.41a269.33,269.33,0,0,0-29.57-10.65,296.4,296.4,0,0,0-45.11-9.83,369.94,369.94,0,0,0-70.75-2.39c-.64,2-2.25,3.79-3.73,3.85-1.8.08-4.22-1.4-5.6-3.24-10.21.79-20.62,1.91-31.24,3.42q-22.91,3.25-47.05,8.75c-10.47,2.39-21.15,5.15-32,8.17-20.91,5.84-42.37,12.73-64.56,20.94C376.27,2740.06,458,2821.9,722.67,2754.68Zm-126.8-5.8a11.41,11.41,0,0,1-3.11,0c-6.43-2.16-8.39-6.16-5.45-11.22,1-1.79,2.81-2.26,4.83-1.49,5.07,2,7.22,5.12,6.87,9.27C598.88,2747,597.66,2748.17,595.87,2748.88Zm67.35-41.9,1.12-1.3.69,1.46Zm-38.91-53c.33-.59,1.39-1.51,1.77-1.42a3.22,3.22,0,0,1,2.83,3,2.16,2.16,0,0,1-1,1.54,2.34,2.34,0,0,1-3.66-1.08A2.24,2.24,0,0,1,624.31,2654Zm-244.9-79.26c-.4.63-.69,1.76-1.18,1.81-2,.21-2.88-.88-2.08-2.77.17-.41,1.25-.62,1.92-.92C378.52,2573.51,379,2574.14,379.41,2574.76Zm96.41,136.44c-.46-.14-1-.26-1.42-.42,0-.17,0-.35-.07-.52-1.69.17-3.38.39-5.07.45-7.73.34-13.4-2.21-17.39-6.95a3,3,0,0,1-.32-4,5.38,5.38,0,0,1,4.93-1.9,14.28,14.28,0,0,1,2.89.39c6.74,2,11.83,5.3,14.56,10.36a4.87,4.87,0,0,1,.4,1.66l.86-.08-.79.6.79-.6c.23.42.44.74.63,1,.5.15.91.31,1,.54C477.07,2712.45,476.57,2712.27,475.82,2711.2Zm8.47,55.39a7,7,0,0,1-.48-2.09c0-.24,1-.46,1.48-.69.18.69.35,1.39.52,2.08Zm10.58-41a5.27,5.27,0,0,1-4.8.74,3.32,3.32,0,0,1-1.74-1.58c-.74-2,1.48-4.36,4-4.45,1.93,0,4,.46,4.69,1.79S496.4,2724.62,494.87,2725.57Zm7.32-86.69c-1.31,1.38-3.25,1.63-5.42,1.1-5.39-1.32-8.47-3.5-7.7-5.38a5.11,5.11,0,0,1,5.22-1.44,11.48,11.48,0,0,1,6.87,3.86C501.63,2637.61,502.47,2638.58,502.19,2638.88Zm19.66-33.6c-.11.59-1.08,1.09-1.65,1.63l-1.29-1.86c.25-.64.24-1.61.81-1.87C521.27,2602.47,522.24,2603.33,521.85,2605.28Z"/><path class="cls-2" d="M505.88,2522.6a328.52,328.52,0,0,1,37.27,8c3.06.85,6.07,1.82,9.08,2.76q-3.51-9.82-7.81-19.52c-15.32-34.4-38.09-67.2-66.6-96.16-5.23-5.32-10.7-10.47-16.3-15.51-6.12-5.5-12.39-10.85-18.93-16-7.69-6.06-15.71-11.84-23.95-17.35-5.8-3.88-11.68-7.66-17.72-11.24-1.69-1-3.43-2-5.16-3q-9.72-5.55-20.57-11c-49.61-24.58-117.11-45.13-202.34-42.72-7.57.2-15.31.63-23.16,1.22-6.74.5-13.6,1.17-20.55,2a564.09,564.09,0,0,0-65.34,11.49c32.57,48.66,62.07,92.39,95.33,128.8a8.77,8.77,0,0,1,4-2.94c3.12-1.33,8.23.39,9.15,3.17.76,2.27-2.6,5.83-6.15,6.44a5.3,5.3,0,0,1-.8,0c38,40,81.38,70.42,140,87.5C379.79,2518.71,446.78,2513.39,505.88,2522.6Zm-42.17-14.18c-.55-.53-1.57-1.1-1.51-1.6s1.57-1.46,1.78-1.37C466.37,2506.48,466.23,2507.54,463.71,2508.42ZM475,2484.85c-.89.23-1.9.79-2.66.65-2.92-.56-3.22-1.63-.74-2.58a4.69,4.69,0,0,1,2.82.4C474.91,2483.52,474.86,2484.32,475,2484.85Zm-79.68-125.36c2.2-.49,3.95.23,4.57,1.89.12.33-1.31,1-2,1.49-2.42.62-4.07,0-4.43-1.86C393.4,2360.56,394.56,2359.66,395.36,2359.49Zm-194.72-47.3a3,3,0,0,1,1.9-1.45,5.68,5.68,0,0,1,5,1.43,4.05,4.05,0,0,1-2.89,3.31,4.18,4.18,0,0,1-2.42.29C200.53,2314.89,200,2313.55,200.64,2312.19ZM343.9,2448.65a14.5,14.5,0,0,1-8.18,2c-1.94-.38-3.38-1.18-3.62-2.48a2.42,2.42,0,0,1,.89-2c2-1.64,4.76-2.32,7.66-2.78,2.25-.36,4.14,0,5,1.58S345.58,2447.69,343.9,2448.65Zm83.44,8.44c-5.06-1.27-9.19-3.38-11-7.32-.67-1.45-1.24-2.9-1.85-4.35-1.62-2.58,2.71-8.28,7-9.21,11.79-2.56,20.9,3.8,20.08,12a12.68,12.68,0,0,1-1.45,4.39C438.41,2455.9,431.8,2458.21,427.34,2457.09Z"/><path class="cls-2" d="M643.12,2256.51q-5,13-9.43,25.63c-4,11.38-7.69,22.52-11,33.35-20.82,68.11-28.3,125.43-25.75,174.13a319.78,319.78,0,0,0,3.69,34.72c1.5,9.12,3.4,17.88,5.63,26.34.59,2.23,1.15,4.48,1.78,6.67a279.23,279.23,0,0,1,44.68,31.36,10.48,10.48,0,0,1,5.55,2.75,2.68,2.68,0,0,1,.92,2.83,292.1,292.1,0,0,1,34.39,37.47c0-1.24.9-2.3,2.57-2.49a7,7,0,0,1,5.18,1.78c1.65,1.46,1.31,2.79-.71,3.54a13.83,13.83,0,0,1-2.6.44,9.68,9.68,0,0,1-2.49-.76c23,30.41,38.33,62.34,48.36,90,2.47,1.6,4.94,3.2,7.43,4.76,117.46-268.6,44.28-376.22-90.81-515.5C654.14,2228.34,648.46,2242.56,643.12,2256.51Zm-12.89,73.36c2.1.83,2,1.73-.13,2.53-.49-.45-1.38-.92-1.35-1.34S630.05,2329.79,630.23,2329.87Zm-5.44,93.93c-1.1,1.59-2.68,2.15-5,1.58a5.58,5.58,0,0,1-4.05-2.69c-.74-1.55.12-2.82,1.61-3.88a4.65,4.65,0,0,1,5.14-.42C625.41,2419.82,626.15,2421.84,624.79,2423.8Zm1,133-1.62-.83,1.8-.63ZM768.47,2521c-6.48-.84-10.84-3.61-13.36-8-.37-.63-.07-1.47-.07-2.48.52-2,2.26-3.7,4.74-5.07a7.11,7.11,0,0,1,5.71-.63c4.81,1.38,9,3.25,10.76,7.12a14.28,14.28,0,0,1,.82,2.14C778.14,2517.78,773.36,2521.59,768.47,2521Zm17.44,71.13.29-1.47,2,.94Zm3.38-108.29c-.35,3-5.11,5.12-8.75,4.06a44.84,44.84,0,0,1-12.78-5.75c-2.32-1.59-2.94-3.8-3.45-6.11-.47-3.61,4.7-7.22,9.53-6.55C783.25,2470.77,790.08,2477.13,789.29,2483.8Zm-28.88-87.26c.72-1.86,2.54-2.08,4.72-.81,1.88.5,3.83.92,5.61,1.56a3.13,3.13,0,0,1,1.9,1.61c.25,1.24-1.21,2.11-3.61,2a33,33,0,0,1-5.76-.94C761,2399.48,759.78,2398.2,760.41,2396.54Zm-26.55,27.3a5.62,5.62,0,0,1,3.7-3.25,13.17,13.17,0,0,1,2.94-.31,20.43,20.43,0,0,1,8.93,1.46c4.42,2,8.28,4.37,11,7.72,1.31,1.63.83,2.7-2,3.12a28.72,28.72,0,0,1-6.07.37,39.45,39.45,0,0,1-16.71-5C733.67,2426.86,733.16,2425.53,733.86,2423.84Zm-71.61-60.4-1.74.41.27-1.18Z"/><path class="cls-2" d="M139.76,2273.11c91.54-8.2,165.88,8.47,222.64,32.07-19.58-68.56-24-143.63-13.16-222.51A395.76,395.76,0,0,0,313,2036.51c.07.67.1,1.34.15,2-.11,1.49-.25,3-.32,4.48-.09,1.74-4.91,3.79-7,2.89a40.88,40.88,0,0,1-5.14-2.32,45.47,45.47,0,0,1-14.49-14.2,10.42,10.42,0,0,1,.48-12.91,8.6,8.6,0,0,1,3.76-2.5C217.59,1947.46,125,1920.25,0,1891.3,8.61,2082,63,2200.14,139.76,2273.11Zm184.3-220c2.27.87,2.16,1.82-.18,2.61-.52-.47-1.49-1-1.44-1.39S323.84,2053,324.06,2053.07Zm-173.3,108.56.19-1.14,1.41.69Zm5.43-69.17c1.89-.15,4.21,2.5,4.12,4.68-.07,2.38-2.81,4.68-4.88,4-3-.92-5.41-3-5.19-4.5C150.48,2095,153.77,2092.65,156.19,2092.46Zm-28,44.51c3.5,0,7.19,3.8,5.08,6.3a3.85,3.85,0,0,1-5,1.3,7.49,7.49,0,0,1-3.93-3C123.17,2139.82,125.48,2137,128.2,2137Zm-26.13,37.51a2.86,2.86,0,0,1,1.73,1.61,2.71,2.71,0,0,1,0,2.09,7,7,0,0,1-1.51,1.71,9.2,9.2,0,0,1-1.81-.69C98.41,2177.86,99.84,2174.18,102.07,2174.48ZM73.29,1932.1c.58.08,1,.79,1.5,1.21l-2.24.87c-.8-.22-2.09-.29-2.31-.69C69.64,1932.43,70.89,1931.81,73.29,1932.1ZM58.13,2050.66a5.85,5.85,0,0,1,5.34,4.55c.25,1.45-1.23,2.47-3.31,2.36-2.93-.16-5.28-2.28-5.29-4.42A3,3,0,0,1,58.13,2050.66Zm-26.29-72.61.78,1.76-2-.16Zm-19.37-17.7c2.14.87,2.93,2.2,2,3.87s-2.56,2.22-4.72,2c-2-.5-3.39-1.52-3.54-3.06C6,1961,9.88,1959.3,12.47,1960.35Z"/><path class="cls-2" d="M400.44,2013c-2-1.57-4-3.15-6-4.74a674.36,674.36,0,0,0-14.05,67.07q-1.83,11.72-3.21,23.31c-1,8.76-1.92,17.47-2.55,26.11a530.68,530.68,0,0,0,.46,84.09,2.39,2.39,0,0,1,1.11,1.33c.07.17-.4.46-.91.76,3.5,39,11.37,76.35,23.86,111.58,5.88,3.12,11.54,6.29,16.91,9.47a409.25,409.25,0,0,1,44.2,30.31q10,7.82,19.32,16.15c6.84,6.09,13.41,12.4,19.75,18.86a377,377,0,0,1,50.3,63.66,8.05,8.05,0,0,1,3.7-2,18.83,18.83,0,0,1,11.9,1.05c.74.34,1.35.76,2,1.14.76-32.06,5.22-67.2,14.15-105.88a3.91,3.91,0,0,1-.48-.05c-9.38-2.14-15.18-7-18.88-13.54-.22-3.9,1.83-7.2,5.25-10,4-3.29,15.83-2.76,19.32.94.13.13.23.29.36.42,6.47-24.32,14.56-49.91,24.57-77C581,2155.58,496.57,2088.87,400.44,2013Zm172.05,269c1-1.71,2.89-2.15,5.21-1.51,2.72.74,3.21,2,1.34,3.6a8,8,0,0,1-2.23,1.57,12.93,12.93,0,0,1-2.83.42C572.25,2284.92,571.58,2283.5,572.49,2282Zm-86.28-64.54a6.08,6.08,0,0,1,0,6.59c-1.86,3-4.82,4.88-9.12,5.5a53.82,53.82,0,0,1-6.12.23c-9.18-1.21-14.15-9.42-11.66-13.78a9.11,9.11,0,0,1,6.18-4.61,24.12,24.12,0,0,1,14.85,1A11.27,11.27,0,0,1,486.21,2217.46Zm-16.67,19.22-1.93,1.4c-.58-.51-1.62-1-1.59-1.53s1.14-1,1.77-1.44C468.37,2235.62,468.93,2236.13,469.54,2236.68Zm4.34-56.73a3.85,3.85,0,0,1,4.7,1.72c.16.3-1,1.23-1.8,1.51a12.68,12.68,0,0,1-3,.3c-.54-.61-1.49-1.23-1.48-1.84A2.4,2.4,0,0,1,473.88,2180Zm-31.39-33.12a27.33,27.33,0,0,1,3.26-3.78c3.4-3.3,8-4.4,13.39-3.67a17.34,17.34,0,0,1,8,2.9c3.86,2.88,5.09,6.41,3.71,10.27s-5,6.37-10.18,7.63a16.92,16.92,0,0,1-2.92.19c-3.14-.19-6.12-.7-8.38-2.31a38.72,38.72,0,0,1-6.06-4.95C441.61,2151.26,440.93,2149,442.49,2146.83Zm.2,33.35,1.78,1.53c-.67.47-1.34.94-2,1.4-.61-.51-1.72-1.05-1.68-1.54S442,2180.64,442.69,2180.18Zm-42.3-155.41c2.09-.86,3.73-.5,4.76.86.57,1.4-.17,2.52-2.33,2.79a4,4,0,0,1-4.45-2.19C398.24,2025.91,399.56,2025.11,400.39,2024.77Zm-1.67,97.44c-.56-.13-1.35-.13-1.65-.4a3.7,3.7,0,0,1-.69-1,6.07,6.07,0,0,0-1.22-.15c0-.25-.05-.5-.08-.75-1.76-.23-2.51-.82-2.12-1.81.62.2,1.57.27,1.8.6a2.4,2.4,0,0,1,.32,1.21c.29,0,.54.09.88.11.15.26.28.53.42.79C397.74,2121,398.65,2121.38,398.72,2122.21Zm109.73,229.35c-.44,2.77-4.58,5.61-8.19,5.5-7.77-.23-13.45-3.71-14.79-9.08-1-3.8,2.21-7.46,7.3-8.47,4.66-.92,7.93-.35,10.9,2C507.23,2344.32,509.06,2347.6,508.45,2351.56Zm28.77-35.07c-.38.57-1.37.94-2.08,1.4a11.51,11.51,0,0,1-2.85-.77c-6.33-3.86-12.74-7.59-20.51-9.79a16.67,16.67,0,0,1-2.52-1.3c-4.78-2.27-7.46-7.85-5.86-12a15.83,15.83,0,0,1,6.27-7.65,8.87,8.87,0,0,1,5.61-1.39c6.68.37,11.64,4.67,12.26,8.68a65.77,65.77,0,0,1,.9,6.79c.15,4,2.15,7.3,5.77,10.2a15.79,15.79,0,0,1,3.3,3.72A2.17,2.17,0,0,1,537.22,2316.49Zm12.29,64.35c2.41.88,2.28,1.81-.23,2.55l-1.65-1.38C548.27,2381.59,549.23,2380.72,549.51,2380.84Zm-20-212.27c.73-1.54,2.62-2.36,4.78-2.34,3.59.05,8.18,3.45,7.86,5.69a11,11,0,0,1-2.35,1.41,9.22,9.22,0,0,1-8.31-.82C529.78,2171.52,528.8,2170.15,529.56,2168.57Zm-8.26,44c.93-1.88,1.73-2.86,2.88-2.29.77.4,1.15,1.21,1.72,1.83,2.27,2.45,4.64,4.86,6.8,7.37a4.61,4.61,0,0,1,.9,4.34c-.67,1.4-1,3-2.06,4.19a9,9,0,0,1-12.55,1.07c-2.91-2.36-4.14-5.14-2.51-8.25C518,2218.09,519.91,2215.43,521.3,2212.62Z"/><path class="cls-2" d="M7327.83,2590.37c-22.18-8.21-43.65-15.1-64.56-20.94-10.81-3-21.49-5.78-32-8.17q-24.15-5.51-47.05-8.75c-10.62-1.51-21-2.63-31.24-3.42-1.38,1.84-3.8,3.32-5.59,3.24-1.49-.06-3.1-1.87-3.73-3.85a370,370,0,0,0-70.76,2.39,296.4,296.4,0,0,0-45.11,9.83,269.33,269.33,0,0,0-29.57,10.65q-6.94,3-13.65,6.41c-.53.27-1.09.49-1.61.76-6.7,3.44-13,7.18-19.13,11.05a248.9,248.9,0,0,0-23.75,16.89c-30.26,24.49-51.92,53.75-67.4,82.17a322,322,0,0,0-14.43,30.2c-3.61,8.61-6.72,17-9.32,24.81-1.24,3.79-2.42,7.5-3.47,11C7110.19,2821.9,7191.9,2740.06,7327.83,2590.37Zm-358.67,155.06c-.35-4.15,1.8-7.32,6.88-9.27,2-.77,3.79-.3,4.83,1.49,2.93,5.06,1,9.06-5.45,11.22a11.49,11.49,0,0,1-3.12,0C6970.51,2748.17,6969.29,2747,6969.16,2745.43Zm-66-38.29.69-1.46,1.12,1.3ZM6944,2656c-.83,1.62-2.25,2-3.67,1.08a2.11,2.11,0,0,1-1-1.54,3.21,3.21,0,0,1,2.82-3c.38-.09,1.45.83,1.77,1.42A2.24,2.24,0,0,1,6944,2656Zm246.14-83.14c.66.3,1.75.51,1.92.92.8,1.89-.05,3-2.07,2.77-.5-.05-.79-1.18-1.19-1.81C7189.21,2574.14,7189.66,2573.51,7190.1,2572.88Zm-98.74,138.86c.08-.23.5-.39,1-.54a9.91,9.91,0,0,0,.63-1l.79.6-.79-.6.86.08a4.87,4.87,0,0,1,.4-1.66c2.73-5.06,7.82-8.36,14.56-10.36a14.28,14.28,0,0,1,2.89-.39,5.38,5.38,0,0,1,4.93,1.9,3,3,0,0,1-.32,4c-4,4.74-9.66,7.29-17.39,6.95-1.69-.06-3.38-.28-5.07-.45,0,.17,0,.35-.07.52-.41.16-1,.28-1.42.42C7091.6,2712.27,7091.1,2712.45,7091.36,2711.74Zm-9,54.15c.17-.69.34-1.39.52-2.08.51.23,1.47.45,1.48.69a7,7,0,0,1-.48,2.09Zm-11.22-43.82c.69-1.33,2.76-1.78,4.69-1.79,2.52.09,4.75,2.44,4,4.45a3.32,3.32,0,0,1-1.74,1.58,5.27,5.27,0,0,1-4.8-.74C7071.77,2724.62,7070.49,2723.33,7071.14,2722.07ZM7067,2637a11.48,11.48,0,0,1,6.87-3.86,5.09,5.09,0,0,1,5.21,1.44c.78,1.88-2.3,4.06-7.69,5.38-2.17.53-4.11.28-5.42-1.1C7065.7,2638.58,7066.54,2637.61,7067,2637Zm-18.56-33.84c.58.26.56,1.23.81,1.87l-1.28,1.86c-.58-.54-1.55-1-1.66-1.63C7045.93,2603.33,7046.9,2602.47,7048.45,2603.18Z"/><path class="cls-2" d="M7262.82,2538.55c58.63-17.08,102-47.52,140-87.5a5.12,5.12,0,0,1-.79,0c-3.56-.61-6.91-4.17-6.15-6.44.91-2.78,6-4.5,9.14-3.17a8.72,8.72,0,0,1,4,2.94c33.26-36.41,62.77-80.14,95.32-128.8a563.19,563.19,0,0,0-65.33-11.49c-6.95-.8-13.81-1.47-20.55-2-7.85-.59-15.59-1-23.16-1.22-85.23-2.41-152.73,18.14-202.34,42.72q-10.86,5.38-20.56,11c-1.75,1-3.48,2-5.17,3-6,3.58-11.92,7.36-17.71,11.24q-12.37,8.26-24,17.35c-6.52,5.14-12.8,10.49-18.92,16-5.6,5-11.07,10.19-16.3,15.51-28.51,29-51.28,61.76-66.6,96.16q-4.32,9.69-7.81,19.52c3-.94,6-1.91,9.08-2.76a328.52,328.52,0,0,1,37.27-8C7121.39,2513.39,7188.39,2518.71,7262.82,2538.55Zm-158.62-33.1c.2-.09,1.71.85,1.77,1.37s-.95,1.07-1.51,1.6C7101.94,2507.54,7101.8,2506.48,7104.2,2505.45Zm-10.49-22.13a4.7,4.7,0,0,1,2.82-.4c2.48.95,2.19,2-.74,2.58-.76.14-1.77-.42-2.66-.65C7093.31,2484.32,7093.26,2483.52,7093.71,2483.32Zm81-122.31c-.35,1.89-2,2.48-4.43,1.86-.71-.51-2.14-1.16-2-1.49.61-1.66,2.36-2.38,4.56-1.89C7173.61,2359.66,7174.77,2360.56,7174.69,2361ZM7366,2315.77a4.17,4.17,0,0,1-2.41-.29,4.07,4.07,0,0,1-2.89-3.31,5.68,5.68,0,0,1,5-1.43,3,3,0,0,1,1.9,1.45C7368.2,2313.55,7367.64,2314.89,7366,2315.77ZM7222.53,2445c.85-1.56,2.74-1.94,5-1.58,2.89.46,5.63,1.14,7.66,2.78a2.39,2.39,0,0,1,.89,2c-.24,1.3-1.67,2.1-3.62,2.48a14.54,14.54,0,0,1-8.18-2C7222.59,2447.69,7221.75,2446.37,7222.53,2445Zm-94.47,7.65a12.66,12.66,0,0,1-1.44-4.39c-.82-8.2,8.28-14.56,20.07-12,4.28.93,8.61,6.63,7,9.21-.62,1.45-1.19,2.9-1.85,4.35-1.82,3.94-5.95,6.05-11,7.32C7136.38,2458.21,7129.76,2455.9,7128.06,2452.6Z"/><path class="cls-2" d="M6907.65,2213.57c-135.09,139.28-208.26,246.9-90.81,515.5,2.49-1.56,5-3.16,7.43-4.76,10-27.7,25.35-59.63,48.36-90a9.56,9.56,0,0,1-2.49.76,14,14,0,0,1-2.6-.44c-2-.75-2.36-2.08-.71-3.54a7,7,0,0,1,5.19-1.78c1.66.19,2.61,1.25,2.56,2.49a292.82,292.82,0,0,1,34.39-37.47,2.68,2.68,0,0,1,.92-2.83,10.51,10.51,0,0,1,5.56-2.75,279.13,279.13,0,0,1,44.67-31.36c.64-2.19,1.19-4.44,1.78-6.67,2.23-8.46,4.14-17.22,5.63-26.34a319.78,319.78,0,0,0,3.69-34.72c2.55-48.7-4.93-106-25.74-174.13q-5-16.24-11-33.35-4.42-12.58-9.43-25.63C6919.71,2242.56,6914,2228.34,6907.65,2213.57Zm31.76,117.49c0,.42-.85.89-1.34,1.34-2.14-.8-2.23-1.7-.13-2.53C6938.13,2329.79,6939.38,2330.62,6939.41,2331.06Zm6.24,87.33a4.65,4.65,0,0,1,5.14.42c1.49,1.06,2.35,2.33,1.61,3.88a5.58,5.58,0,0,1-4,2.69c-2.3.57-3.88,0-5-1.58C6942,2421.84,6942.76,2419.82,6945.65,2418.39Zm-3.48,137,1.8.63-1.62.83ZM6791.1,2514a14.33,14.33,0,0,1,.83-2.14c1.76-3.87,5.94-5.74,10.75-7.12a7.11,7.11,0,0,1,5.71.63c2.48,1.37,4.22,3.07,4.74,5.07,0,1,.3,1.85-.06,2.48-2.53,4.39-6.89,7.16-13.37,8C6794.81,2521.59,6790,2517.78,6791.1,2514ZM6780,2591.56l2-.94.29,1.47Zm14.32-122.11c4.83-.67,10,2.94,9.54,6.55-.52,2.31-1.14,4.52-3.46,6.11a44.84,44.84,0,0,1-12.78,5.75c-3.64,1.06-8.4-1.09-8.75-4.06C6778.09,2477.13,6784.92,2470.77,6794.33,2469.45ZM6804.9,2400a33,33,0,0,1-5.76.94c-2.4.09-3.86-.78-3.61-2a3.13,3.13,0,0,1,1.9-1.61c1.79-.64,3.73-1.06,5.61-1.56,2.18-1.27,4-1.05,4.72.81C6808.39,2398.2,6807.19,2399.48,6804.9,2400Zm27.69,27.94a39.45,39.45,0,0,1-16.71,5,28.72,28.72,0,0,1-6.07-.37c-2.87-.42-3.36-1.49-2.05-3.12,2.69-3.35,6.57-5.72,11-7.72a20.47,20.47,0,0,1,8.94-1.46,13.23,13.23,0,0,1,2.94.31,5.69,5.69,0,0,1,3.7,3.25C6835,2425.53,6834.5,2426.86,6832.59,2427.92Zm74.8-65.25.26,1.18-1.73-.41Z"/><path class="cls-2" d="M7568.17,1891.3c-125,29-217.6,56.16-290.49,122.66a8.57,8.57,0,0,1,3.75,2.5,10.42,10.42,0,0,1,.48,12.91,45.43,45.43,0,0,1-14.48,14.2,41.68,41.68,0,0,1-5.15,2.32c-2.05.9-6.87-1.15-7-2.89-.07-1.49-.21-3-.32-4.48.06-.67.09-1.34.15-2a396.83,396.83,0,0,0-36.22,46.16c10.88,78.88,6.42,153.95-13.16,222.51,56.76-23.6,131.1-40.27,222.64-32.07C7505.19,2200.14,7559.56,2082,7568.17,1891.3Zm-322.44,163c.05.43-.92.92-1.44,1.39-2.34-.79-2.45-1.74-.18-2.61C7244.34,2053,7245.68,2053.82,7245.73,2054.29Zm170.08,106.89,1.41-.69.19,1.14Zm2.12-64.5c.22,1.49-2.21,3.58-5.19,4.5-2.07.64-4.81-1.66-4.88-4-.09-2.18,2.23-4.83,4.12-4.68C7414.41,2092.65,7417.69,2095,7417.93,2096.68Zm25.89,44.92a7.47,7.47,0,0,1-3.92,3,3.86,3.86,0,0,1-5-1.3c-2.1-2.5,1.59-6.3,5.08-6.3C7442.69,2137,7445,2139.82,7443.82,2141.6Zm23.91,37.6a9.45,9.45,0,0,1-1.81.69,7,7,0,0,1-1.51-1.71,2.71,2.71,0,0,1,0-2.09,2.89,2.89,0,0,1,1.73-1.61C7468.33,2174.18,7469.76,2177.86,7467.73,2179.2Zm30.2-245.71c-.22.4-1.51.47-2.31.69l-2.24-.87c.5-.42.92-1.13,1.5-1.21C7497.28,1931.81,7498.53,1932.43,7497.93,1933.49Zm15.38,119.66c0,2.14-2.37,4.26-5.3,4.42-2.08.11-3.56-.91-3.31-2.36a5.85,5.85,0,0,1,5.34-4.55A3,3,0,0,1,7513.31,2053.15Zm24.25-73.5-2,.16.77-1.76Zm24.4-16.46c-.15,1.54-1.51,2.56-3.54,3.06-2.16.19-3.86-.46-4.72-2s-.14-3,2-3.87C7558.3,1959.3,7562.18,1961,7562,1963.19Z"/><path class="cls-2" d="M6956.64,2256c10,27.06,18.09,52.65,24.56,77,.13-.13.23-.29.37-.42,3.49-3.7,15.36-4.23,19.31-.94,3.42,2.83,5.47,6.13,5.25,10-3.69,6.5-9.5,11.4-18.88,13.54a3.71,3.71,0,0,1-.48.05c8.93,38.68,13.39,73.82,14.15,105.88.68-.38,1.29-.8,2-1.14a18.8,18.8,0,0,1,11.89-1.05,8,8,0,0,1,3.7,2,377,377,0,0,1,50.3-63.66c6.34-6.46,12.91-12.77,19.75-18.86q9.38-8.32,19.32-16.15a409.25,409.25,0,0,1,44.2-30.31c5.37-3.18,11-6.35,16.92-9.47,12.48-35.23,20.35-72.6,23.85-111.58-.51-.3-1-.59-.91-.76a2.39,2.39,0,0,1,1.11-1.33,530.68,530.68,0,0,0,.46-84.09c-.63-8.64-1.52-17.35-2.55-26.11q-1.38-11.59-3.21-23.31a674.36,674.36,0,0,0-14.05-67.07c-2,1.59-4,3.17-6,4.74C7071.6,2088.87,6987.21,2155.58,6956.64,2256Zm37.55,30a13,13,0,0,1-2.83-.42,8,8,0,0,1-2.23-1.57c-1.86-1.65-1.38-2.86,1.34-3.6,2.32-.64,4.2-.2,5.21,1.51C6996.59,2283.5,6995.92,2284.92,6994.19,2286.08Zm93.68-73.66a24.12,24.12,0,0,1,14.85-1,9.11,9.11,0,0,1,6.18,4.61c2.49,4.36-2.48,12.57-11.66,13.78a53.91,53.91,0,0,1-6.12-.23c-4.3-.62-7.26-2.53-9.12-5.5a6.08,6.08,0,0,1,0-6.59A11.27,11.27,0,0,1,7087.87,2212.42Zm12.51,22.69c.63.48,1.74.94,1.77,1.44s-1,1-1.59,1.53l-1.94-1.4Zm-4.49-53.47c0,.61-.94,1.23-1.48,1.84a12.68,12.68,0,0,1-3-.3c-.78-.28-2-1.21-1.8-1.51a3.86,3.86,0,0,1,4.71-1.72A2.38,2.38,0,0,1,7095.89,2181.64Zm28.94-28.53a38.72,38.72,0,0,1-6.06,4.95c-2.26,1.61-5.24,2.12-8.38,2.31a16.92,16.92,0,0,1-2.92-.19c-5.14-1.26-8.78-3.76-10.18-7.63s-.16-7.39,3.72-10.27a17.26,17.26,0,0,1,8-2.9c5.37-.73,10,.37,13.39,3.67a27.41,27.41,0,0,1,3.27,3.78C7127.24,2149,7126.56,2151.26,7124.83,2153.11Zm2.57,28.46c.05.49-1.07,1-1.68,1.54-.68-.46-1.34-.93-2-1.4l1.78-1.53C7126.17,2180.64,7127.36,2181.08,7127.4,2181.57Zm42.4-155.34a4,4,0,0,1-4.45,2.19c-2.16-.27-2.89-1.39-2.33-2.79,1-1.36,2.67-1.72,4.76-.86C7168.61,2025.11,7169.93,2025.91,7169.8,2026.23Zm2,94.6c.13-.26.26-.53.41-.79.34,0,.59-.07.88-.11a2.32,2.32,0,0,1,.33-1.21c.22-.33,1.17-.4,1.79-.6.39,1-.36,1.58-2.12,1.81a6.36,6.36,0,0,1-.08.75,5.87,5.87,0,0,0-1.21.15,3.74,3.74,0,0,1-.7,1c-.3.27-1.08.27-1.65.4C7169.51,2121.38,7170.43,2121,7171.8,2120.83ZM7064.5,2341.5c3-2.34,6.24-2.91,10.9-2,5.09,1,8.25,4.67,7.3,8.47-1.34,5.37-7,8.85-14.79,9.08-3.6.11-7.75-2.73-8.19-5.5C7059.11,2347.6,7060.94,2344.32,7064.5,2341.5Zm-33.83-27.15a15.75,15.75,0,0,1,3.29-3.72c3.62-2.9,5.62-6.22,5.77-10.2a63.14,63.14,0,0,1,.9-6.79c.62-4,5.59-8.31,12.26-8.68a8.87,8.87,0,0,1,5.61,1.39,15.77,15.77,0,0,1,6.27,7.65c1.61,4.18-1.08,9.76-5.86,12a17,17,0,0,1-2.51,1.3c-7.78,2.2-14.2,5.93-20.51,9.79a11.75,11.75,0,0,1-2.85.77,7.69,7.69,0,0,1-2.09-1.4A2.16,2.16,0,0,1,7030.67,2314.35ZM7020.54,2382l-1.65,1.38c-2.51-.74-2.63-1.67-.23-2.55C7018.94,2380.72,7019.9,2381.59,7020.54,2382Zm16.09-209.5a9.22,9.22,0,0,1-8.31.82,11,11,0,0,1-2.35-1.41c-.32-2.24,4.27-5.64,7.86-5.69,2.16,0,4.05.8,4.78,2.34S7038.4,2171.52,7036.63,2172.51Zm15.06,48.37c1.63,3.11.41,5.89-2.5,8.25a9,9,0,0,1-12.55-1.07c-1-1.24-1.4-2.79-2.07-4.19a4.61,4.61,0,0,1,.9-4.34c2.16-2.51,4.53-4.92,6.8-7.37.57-.62.95-1.43,1.73-1.83,1.15-.57,1.94.41,2.87,2.29C7048.27,2215.43,7050.22,2218.09,7051.69,2220.88Z"/><path class="cls-1" d="M6407.24,2770.09C5748.55,2420.44,4486.32,2440.74,3591.18,2528c-830.21,76.45-1518,250.32-1738.73,295-301.36,61-351.33-.59-358.57-13.63,69.42,167.12,443.56,70.77,443.56,70.77,122.11-28.27,2147.18-445.77,3634.38-176.79,636,115,607,279.44,607,279.44,426-16.51,604.83,160.93,604.83,160.93C6814.58,3084.48,6652.29,2881.53,6407.24,2770.09Z"/><path class="cls-1" d="M2780.09,2005.58a40.43,40.43,0,0,0,4.66,5.8,57.71,57.71,0,0,1,4.11,7.87,42,42,0,0,1,3,12,167.81,167.81,0,0,1,.83,23.76q-.39,13.59-5.25,39.6-9.82,31.41-26.66,77.15t-37.56,95.94q-20.73,50.16-44.56,100.73t-47.23,91.51q-23.4,41-45.36,67t-40,28.21q-13.35,1.59-36.9-6t-46.93-23.47a189.89,189.89,0,0,1-42.08-39.57,104.17,104.17,0,0,1-22.25-53.45q-3.06-25.87.86-63.33t12.67-81.07q8.75-43.58,21-91.18t25.5-93.72q13.23-46.12,26.59-87.87t24.58-74.5q11.23-32.77,18.73-53.53t8.58-24.9q-3,1.17-15.06,10.55a301.78,301.78,0,0,1-30.22,20.28,377,377,0,0,1-41.63,21.24,171.16,171.16,0,0,1-49.33,13.4q-8,26.42-19.87,64t-25.38,77.79q-13.54,40.2-28.53,78.17T2297,2212.34q-9.12,17-20.2,24.27t-21.27,8.5q-8.62,1-11.08.51a31,31,0,0,1-4.1-1.1q17.57-46.64,34.74-92.82t32.17-87.73q15-41.55,27.05-77.2t20.19-61.26a123.82,123.82,0,0,1-21-9,82.36,82.36,0,0,1-18.77-14.1,80.12,80.12,0,0,1-14.82-20.91q-6.24-12.39-8.28-29.65-2.14-18,1-41.89a199,199,0,0,1,11.66-45.93,131.85,131.85,0,0,1,22.49-38.47q14-16.37,34.37-18.78,32.16-3.83,52.41,16.07t24.07,52q3.26,27.48-3,44.91t-10.2,31.44c.51-.06.81,0,.84.3s.29.37.83.3q16.46-1.95,35-16.48a285.32,285.32,0,0,0,36.48-34.56,409.63,409.63,0,0,0,33.5-42.93q15.57-23,26.78-42.57a42.47,42.47,0,0,1,9.77-11.5,26.74,26.74,0,0,1,14.36-6.46q11.76-1.41,34.82,8.6a244.35,244.35,0,0,1,46.13,26.76,247.77,247.77,0,0,1,41.5,38q18.42,21.27,20.85,41.68.55,4.69-2.57,18.6t-8.74,33.65q-5.64,19.77-13.77,45t-16.76,53.3q-14,43-29.35,91.38t-30.61,97.51q-15.27,49.14-28.8,96.07t-23.44,87.52q-9.91,40.55-15.31,72.21t-4,49.8q1.31,11,9.14,10.07,7.07-.84,20.18-21.09t29.93-52.87q16.82-32.61,35.76-74.25t37.73-84.42Q2728.4,2133.44,2780.09,2005.58Z"/><path class="cls-1" d="M3202.79,1994.48q6.14-15,10.18-28.24c2.64-8.81,4.29-13,4.87-12.52,1.75,1.37,4.07,4.16,7,8.33s5.28,10,7.23,17.43,2.66,16.92,2.17,28.38-3.29,24.94-8.34,40.37q-10,29.83-29.65,75.51T3150,2220.3q-26.59,50.88-57.5,102.28t-61.79,92.84q-30.89,41.46-60.27,68.8t-52.13,30q-39.23,4.64-74-9.94a197,197,0,0,1-61.71-40.82,226.48,226.48,0,0,1-44.05-59.61q-17.08-33.36-21-66.32-6.6-55.71,3.48-121.74a933.92,933.92,0,0,1,30.75-133.31,1049.37,1049.37,0,0,1,49.44-130q28.77-62.67,59.13-112t60.09-80.31q29.74-31,52.49-33.67,22-2.6,53.89,8.34a355.08,355.08,0,0,1,62.25,28.43q30.28,17.49,52.62,37.91t24.35,37.69q3.08,25.9-8.87,69.46T3122.76,2004q-22.49,52-53,106.91a1120.1,1120.1,0,0,1-63.86,102.23q-33.37,47.33-68.2,82.46t-65.17,47.5c-.31,6.39-.4,12.38-.26,17.93s.53,11.21,1.21,17q3.61,30.6,19.18,41.1a49.37,49.37,0,0,0,34.39,8.26q19.61-2.34,44.87-27.59t52.1-63.85q26.85-38.57,54.2-86.37t51.62-94.83q24.27-47,43.11-89.42T3202.79,1994.48Zm-161.64-128.83q-13.35,1.59-28.56,20.9t-31,50.6q-15.78,31.32-31.63,72.16t-29.21,85.81q-13.38,44.94-24.2,91.16t-16.3,87.44q18.49-11.71,39.6-38.49a553.77,553.77,0,0,0,42-62.25q20.85-35.46,39.54-75.87t32.31-79.82a560,560,0,0,0,20.57-74.82q6.93-35.42,4-60.54Q3056.06,1863.92,3041.15,1865.65Z"/><path class="cls-1" d="M3566.13,2435.92q-13.37,1.59-36.91-6t-46.93-23.49a189.88,189.88,0,0,1-42.08-39.57,104.24,104.24,0,0,1-22.24-53.45,129.79,129.79,0,0,1,.07-26.25,308.54,308.54,0,0,1,5.42-34.85q-18.89,42-39,80.59t-39.2,68.69q-19.11,30.1-36.81,48.51t-32.62,20.17q-13.32,1.58-36.9-6T3192,2440.86a189.93,189.93,0,0,1-42.08-39.58,104.25,104.25,0,0,1-22.25-53.45q-2.49-21.16,5.95-63.93t22-96.09q13.58-53.31,30.33-113.39t29.9-116.89q13.14-56.83,20.87-105.89t4-80.43q-3.08-25.89-12.38-33.94c-6.2-5.35-11.66-7.77-16.37-7.2q-6.27.73-9,4.24c-.93,1.19-1.94,1.56-3,1.17a2.51,2.51,0,0,1-1.85-2.17,51.43,51.43,0,0,1,1.89-11,32.32,32.32,0,0,1,6.88-12.35,45.8,45.8,0,0,1,14.23-10.82q9-4.67,24.69-6.52,21.18-2.49,49.88,8a280.82,280.82,0,0,1,54.5,27,246,246,0,0,1,44.84,36.06q19,19.63,20.8,34.52,1.39,11.76-4,39.86t-15.18,66.62q-9.75,38.57-22.94,85T3347,2083.61q-13.48,47.35-26.67,93.84t-22.9,85.46q-9.71,38.93-15.08,67.42t-3.89,41q1.31,11,9.15,10.07,8.63-1,26.51-31.41t40.27-76.36q22.39-46,46.51-101t45.62-105.23q21.49-50.28,37.22-88.74t21.21-52.62q13.79-58.14,21.86-107.61t4.25-81.64q-3.08-25.89-12.38-33.94c-6.2-5.35-11.65-7.77-16.36-7.21-3.14.38-5.41,1.32-6.83,2.79s-2.65,2.31-3.69,2.44c-2.1.25-3.23-.42-3.42-2a52.07,52.07,0,0,1,1.89-11,32.49,32.49,0,0,1,6.89-12.35,45.7,45.7,0,0,1,14.23-10.83q9-4.66,24.69-6.51,21.18-2.51,49.87,8a281.51,281.51,0,0,1,54.51,27,245.39,245.39,0,0,1,44.83,36.06q19,19.64,20.81,34.52,1.85,15.69-8.68,61.09t-27.24,105.84q-16.71,60.45-36.11,128.39t-36,128.77q-16.66,60.85-27.15,106.64t-8.53,62.26c.68,5.76,2.61,8.71,5.82,8.86a56.74,56.74,0,0,0,9.5-.34q25.91-3.06,52-27.64t50.78-64.88q24.66-40.31,47.45-93.12t41.94-112.78q19.14-59.93,34.31-123.38t24.57-125q5.12-50.73,5.45-101.68a802.52,802.52,0,0,0-5.44-99.6q-3.24-27.46-8.27-53.11a474.9,474.9,0,0,0-12.71-50.19,58.66,58.66,0,0,0-8.81-17.28,44.6,44.6,0,0,0-10.32-9.9,60.08,60.08,0,0,0-11.73-5c.06.53.36-.3.9-2.5a33.09,33.09,0,0,1,3.08-7.52,31,31,0,0,1,7-8.38q4.66-4.12,13.31-5.14,11-1.31,29.06,6.89t39,24a343.6,343.6,0,0,1,42.82,39.08,371,371,0,0,1,73.52,117,292,292,0,0,1,18.2,73q3.8,32.19-4.14,79.25t-25.3,102a1206.58,1206.58,0,0,1-43.28,114.91q-25.92,59.94-58,117.85A1296.63,1296.63,0,0,1,3804.22,2243q-36.7,52.88-76.36,94.18t-80.69,67.62Q3606.15,2431.18,3566.13,2435.92Z"/><path class="cls-1" d="M5125.4,1050.45q17.18,1.53,40.24,11a297.86,297.86,0,0,1,47.63,25.27A331.31,331.31,0,0,1,5261,1124.4a299.47,299.47,0,0,1,41.09,47.8,212,212,0,0,1,27.56,56,155.77,155.77,0,0,1,6.84,62q-1.53,17.18-18.67,42.87t-43.94,57.92q-26.79,32.24-61,69.58t-70,77.44q-35.71,40.1-70.34,81.53t-62.11,81.45a598.93,598.93,0,0,0-45.68,77.55q-18.19,37.55-21.11,70.26a80,80,0,0,0,.4,18.59,69.91,69.91,0,0,0,4,15.61,65.74,65.74,0,0,0,6.12,14.56,12.26,12.26,0,0,1-3.77,5.44c-3.09,3.56-8.16,5-15.25,4.41q-11.46-1-25.9-19.21t-26.12-53.88q-11.65-35.67-17.24-88.53t.7-123.21q2.19-24.54,29.15-63.35t65.52-82.79q38.56-44,83.78-88.57t83.25-82.85q38.06-38.25,63.88-64.4t26.49-33.5q2-22.89-29.48-20.78t-84.39,26.29q-52.86,24.13-122.39,68.62t-143,105.56q-73.47,61.06-145.4,137.09a1243.16,1243.16,0,0,0-130.45,163.57A1052.71,1052.71,0,0,0,4465,1872.1a680.8,680.8,0,0,0-49.2,200.08,221.72,221.72,0,0,0,5.17,71.38,201.28,201.28,0,0,0,27.24,64.27,166.7,166.7,0,0,0,47.27,47.93q28.38,19,65.19,22.3,38.45,3.45,84.73-11.39t96.65-43.74q50.4-28.89,103.55-69.91t104.82-89.16q51.72-48.17,100.6-101.5t91.62-107.27q35.24-43.85,68.77-87t62.79-75.2q5,8.69,4.51,23.5-1.17,13.1-8.5,35.09t-27.71,56.5q-23.22,38.33-64.72,96.87t-96.28,122.51a1663.5,1663.5,0,0,1-121.84,127.23,1056,1056,0,0,1-141.13,112.31q-74.09,49.07-154,76.53t-160.94,20.25q-66.24-5.9-114.32-26.26t-80.46-50.06q-32.4-29.68-51.4-66a328.63,328.63,0,0,1-28.39-74.69,391.23,391.23,0,0,1-11-75.6,523.77,523.77,0,0,1,1.23-69.15q7.66-85.9,38.61-173.83a1099,1099,0,0,1,78.49-172.75A1342.55,1342.55,0,0,1,4445,1491.43a1545.82,1545.82,0,0,1,129.88-148,1415.42,1415.42,0,0,1,142.26-125q73.45-56.12,145-95.49t138-58.58q66.42-19.23,122.06-14.26Z"/><path class="cls-1" d="M5533.11,1812.45a50.86,50.86,0,0,0-5.24-24.37c-3.3-6.36-8.67-12.32-16.14-17.95s-19.11-9.11-34.93-10.53q-18.81-1.66-43.12,16.77t-51.41,49.4a884,884,0,0,0-55.39,70.93q-28.32,39.94-53.94,82.17t-47.4,83.17q-21.79,40.93-36.21,73T5170.27,2187c-3.13,13.18-2.19,20,2.71,20.44q4.91.43,25.83-26.14t50.49-66.82q29.58-40.23,63.46-87.5t65.52-87.34q31.61-40,57-66.22t36.87-25.15q17.18,1.54,40.84,13.55a199.84,199.84,0,0,1,44.27,30.73,189.31,189.31,0,0,1,34.59,41.85q14,23.12,12,46-.45,4.9-8.59,22.32T5574.61,2045q-12.54,24.86-27.56,54.45t-30.07,60q-15.09,30.38-28.39,59.3T5467.11,2270q-8.16,22.35-9.42,36.25t6.93,14.65q4.94.43,20.95-17.51t38.86-47.25q22.82-29.28,50.14-67.68t54.79-78q65.28-93.91,144.35-213c3.89,5.85,6.24,13.21,7.1,22.07.41,7.75-.75,17.66-3.49,29.79s-9.29,27.08-19.67,44.82q-18.4,30.53-44.53,74t-56.24,89.8q-30.15,46.37-61.42,92.21t-58.84,81.75q-27.54,35.88-49.27,57.85t-32.39,21q-19.64-1.76-45.84-17.7a223.12,223.12,0,0,1-48.72-40.62,227.13,227.13,0,0,1-37.46-56.12q-14.91-31.45-11.92-65c.44-4.9,2.47-12.42,6.15-22.54s8.08-21.55,13.36-34.26,11.27-26.48,18.1-41.26,13.9-29.54,21.27-44.28q25.18-51.35,56.11-111.24-23.31,30.08-48.53,63.28-21.52,28.58-48.25,64.94T5276,2180.31q-32.11,45.81-50.76,83.71t-30.54,64.89q-11.88,27-19.37,41.55t-16.48,13.78q-16.4-1.45-40.89-17.66t-46.69-45q-22.18-28.74-36.4-68t-9.91-87.46q4.3-48.26,23.82-110a1050.64,1050.64,0,0,1,49.63-126.26,1317.55,1317.55,0,0,1,67.31-125.9q37.22-61.41,77.31-108.54t80.48-74.86q40.4-27.72,75.57-24.59,40.91,3.66,73,27.14t53.84,52.63q21.71,29.16,32.43,56.9t9.63,40q-1,11.46-6.26,19.23a46.56,46.56,0,0,1-11.39,12.16,43.12,43.12,0,0,1-15.6,8.51Z"/><path class="cls-1" d="M6000,1902.77q41.13,10.29,66.8,13.8t41,2.84c10.21-.45,17.49-2.15,21.89-5.07a41.37,41.37,0,0,0,10.79-10.16,107.16,107.16,0,0,0,7.68-12.08q3.45-6.3,11.4-12.17c2.32-1.46,5.7-.87,10.13,1.73s6,5.46,4.6,8.64a356.58,356.58,0,0,1-26.56,52.87,131.12,131.12,0,0,1-38.64,40.26q-23.69,16-57.63,22t-82.72-1.6l-51.31-7.07q-35.23,71.09-66.83,134.21t-55.06,113.41q-23.45,50.28-37.61,84.06t-15.16,45.22q-2.21,24.55,3.37,36.17t5.05,17.35a26,26,0,0,1-6.11,8.53q-4.07,3.76-13.06,2.95-13.9-1.23-35.87-13.91t-42.3-33.88a189,189,0,0,1-33.95-49.22,110.32,110.32,0,0,1-10.82-59.07q1.11-12.27,12.35-41.38T5652,2170.2q19.43-42,44.77-95t55.36-112.13q-23-10.29-36.53-15.64c-9-3.54-16.24-5.83-21.65-6.86s-9.66-1-12.8.08a30.18,30.18,0,0,0-9.13,5.37c-1.2,1-1.82,1.78-1.87,2.32a2.44,2.44,0,0,0-1,1.55,8.8,8.8,0,0,1-4.77-2.07q-3.18-1.11-6-6.32a31.29,31.29,0,0,1-2.94-22.51,68.37,68.37,0,0,1,11.21-24.16,108,108,0,0,1,21.8-22.37,154,154,0,0,1,29.64-18,70.09,70.09,0,0,1,22.59-8.28q13-2.55,23.86-4.07,20.79-2.25,45.73,4.91,39.15-78.13,70.52-143.34t58.81-123q27.42-57.72,51.53-110.84t48.34-107.4q24.21-54.33,50-112.63t56.65-126.45c2.08-4.76,6.15-9,12.24-12.51s13.41-3.86,21.95-.92q13.62,4.51,31.52,21t36.64,42a498.9,498.9,0,0,1,36.43,58.5,467.37,467.37,0,0,1,49.45,147.88,323.75,323.75,0,0,1,2.81,79.41q-2.64,29.45-19,64.7t-42,73.73q-25.69,38.52-58.58,78.88t-67.57,78.07q-34.71,37.72-70,72.49t-64.89,61.83Zm236-537.95q-19.33,41.13-44.15,92.93t-54,110.21q-29.11,58.44-61.26,122.74t-65.18,129.81q35.55-38,78-88.67A1214.33,1214.33,0,0,0,6169,1625.57a905.37,905.37,0,0,0,64-111.8q26.85-56.1,31.32-106c.34-3.82.58-11.07.72-21.79a151.64,151.64,0,0,0-2-28.2q-2.22-12.15-8.27-13.53T6236,1364.82Z"/><path class="cls-1" d="M6737,1718.75q15.54,1.38,35.93,22.17t37.4,56.94q17,36.14,26.94,86.1t4.64,109.66q-4,44.18-29.41,89.31t-65.18,88.18a809.54,809.54,0,0,1-89.86,83.08q-50.2,40-104,75.23t-107.53,63.79q-53.7,28.59-100.42,48.75t-82.3,30.58q-35.53,10.42-53.55,8.83-41.73-3.73-74-26a199.65,199.65,0,0,1-53.65-54.67,239.84,239.84,0,0,1-31.64-70.44q-10.21-38-7.15-72.38,5.19-58.08,29.54-123.09a954.37,954.37,0,0,1,59.72-128.66,1137.28,1137.28,0,0,1,78.07-121.65q42.69-58,84.07-101.34t78.27-68.47q36.89-25.15,60.6-23,22.91,2,53.05,20a385.29,385.29,0,0,1,57.28,41.83,286.83,286.83,0,0,1,45.44,49.81q18.3,26,16.75,43.14-2.4,27-23.9,69.19t-55.48,90.28q-34,48.09-76.71,97.44a1163.72,1163.72,0,0,1-86.81,90.38q-44.07,41-87,69.32t-76.47,34.41q-2.52,9.65-4.1,18.19t-2.38,17.49q-2.78,31.13,10.84,44.7a52.29,52.29,0,0,0,33.27,15.32q22.89,2.05,63.21-15.37t85.9-57.07q50.92-44.1,108.13-107.42a1236.43,1236.43,0,0,0,106.58-136.43,968.32,968.32,0,0,0,84-151.63q34.65-78.54,41.28-153c.68-7.63.15-14-1.58-19.1a52.08,52.08,0,0,0-6.27-12.93,60.63,60.63,0,0,0-9.76-10.77,63.47,63.47,0,0,1,6.32-6,36.44,36.44,0,0,1,9-3.72A35.67,35.67,0,0,1,6737,1718.75Zm-263.61,126.52q-13.92-1.23-33.93,15.12t-42.79,45.24q-22.77,28.88-47.66,67.47t-48.5,81.44q-23.62,42.83-44.5,87.55t-35.25,85.5q21.38-8.84,48.56-31.55a574.36,574.36,0,0,0,56-54.36q28.8-31.65,56.44-68.76t49.92-74.29a582.23,582.23,0,0,0,36.91-71.73q14.65-34.59,17-60.75Q6487.3,1846.53,6473.41,1845.27Z"/><path class="cls-2" d="M4767.16,3049.13a10.6,10.6,0,0,1,1.28-4.22c1.61-1.2,3.17-2.38,4.93-3.64.88-.59,2-1.28,3.14-2a11.07,11.07,0,0,1,2.16-.22c63.25,4.06,129.57,9.93,204,18.08a13,13,0,0,0,.7,4.11,4.07,4.07,0,0,0,1.54,1.71c4.84,3.44,10.56,3.28,16.34,1.56a77.24,77.24,0,0,0,10.07-4.17c18.81,2.14,38,4.37,57.94,6.81a10.83,10.83,0,0,1-2.62,21.5c-3.87-.48-7.53-.9-11.34-1.35a11.14,11.14,0,0,0,4.47-2.92c2.09-2.91,3.14-5.82,2.23-9.1a4.16,4.16,0,0,0-3-3.22,11.9,11.9,0,0,0-15.06,8.68,4.08,4.08,0,0,0,1.08,4.31,9.08,9.08,0,0,0,1.83,1.24c-102.22-12.22-188.51-20.43-269.63-25.63A10.82,10.82,0,0,1,4767.16,3049.13Z"/><path class="cls-2" d="M5172.87,3091.25a10.85,10.85,0,0,1,12.17-9.32q57,7.56,113.9,15.37l16.08,2.19a10.82,10.82,0,1,1-2.91,21.45l-16.08-2.19q-56.91-7.74-113.85-15.35A10.83,10.83,0,0,1,5172.87,3091.25Z"/><path class="cls-2" d="M5388.52,2875.22a10.83,10.83,0,0,1-9.75,11.81q-49.07,4.69-98.11,9.86a10.83,10.83,0,1,1-2.26-21.54q49.16-5.13,98.31-9.87A10.81,10.81,0,0,1,5388.52,2875.22Z"/><path class="cls-2" d="M4769,2953.87c.94-2.14,2.69-3.91,4.27-5.76,5.1-6,12.24-9.7,17.39-15.64a6.89,6.89,0,0,0,1.27-3q71.71-8,143.42-16.18,85.14-9.69,170.31-19.24a10.82,10.82,0,1,1,2.4,21.51q-85.16,9.48-170.26,19.25Q4853.45,2944.45,4769,2953.87Z"/><path class="cls-2" d="M3489.72,3049.13a10.75,10.75,0,0,0-1.27-4.22c-1.62-1.2-3.17-2.38-4.94-3.64-.88-.59-2-1.28-3.14-2a11,11,0,0,0-2.15-.22c-63.25,4.06-129.58,9.93-204,18.08a13,13,0,0,1-.71,4.11,4,4,0,0,1-1.53,1.71c-4.85,3.44-10.57,3.28-16.34,1.56a77.37,77.37,0,0,1-10.08-4.17c-18.81,2.14-38,4.37-57.94,6.81a10.83,10.83,0,0,0,2.63,21.5c3.86-.48,7.52-.9,11.33-1.35a11.11,11.11,0,0,1-4.46-2.92c-2.1-2.91-3.14-5.82-2.24-9.1a4.17,4.17,0,0,1,3-3.22,11.9,11.9,0,0,1,15.06,8.68,4.08,4.08,0,0,1-1.08,4.31,9.08,9.08,0,0,1-1.83,1.24c102.23-12.22,188.52-20.43,269.64-25.63A10.82,10.82,0,0,0,3489.72,3049.13Z"/><path class="cls-2" d="M3084,3091.25a10.85,10.85,0,0,0-12.17-9.32q-57,7.56-113.9,15.37l-16.09,2.19a10.82,10.82,0,0,0,2.91,21.45l16.09-2.19q56.91-7.74,113.85-15.35A10.83,10.83,0,0,0,3084,3091.25Z"/><path class="cls-2" d="M2868.37,2875.22a10.82,10.82,0,0,0,9.74,11.81q49.08,4.69,98.11,9.86a10.83,10.83,0,1,0,2.27-21.54q-49.15-5.13-98.32-9.87A10.8,10.8,0,0,0,2868.37,2875.22Z"/><path class="cls-2" d="M3487.84,2953.87c-.94-2.14-2.69-3.91-4.27-5.76-5.1-6-12.24-9.7-17.38-15.64a6.78,6.78,0,0,1-1.28-3q-71.72-8-143.42-16.18-85.14-9.69-170.31-19.24a10.82,10.82,0,1,0-2.4,21.51q85.16,9.48,170.26,19.25Q3403.43,2944.45,3487.84,2953.87Z"/><path class="cls-1" d="M3740.75,2898.32q27,0,40.87,13.88t13.87,38.87q0,25-13.87,39t-40.87,13.74h-54.5v73H3662.5V2898.32Zm-8,85.5q20.25.25,29.62-8.25t9.38-24.5q0-16-9.38-24.38t-29.62-8.36h-46.5v65.49Z"/><path class="cls-1" d="M3868.61,2952.44a88.59,88.59,0,0,1,16.13-29.87,78.64,78.64,0,0,1,26.74-20.74q16-7.76,37.25-7.76t37.25,7.76a78.77,78.77,0,0,1,26.75,20.74,88.76,88.76,0,0,1,16.13,29.87,117.77,117.77,0,0,1,0,70.25,88.67,88.67,0,0,1-16.13,29.87,77.63,77.63,0,0,1-26.75,20.63q-16,7.61-37.25,7.62t-37.25-7.62a77.5,77.5,0,0,1-26.74-20.63,88.49,88.49,0,0,1-16.13-29.87,117.35,117.35,0,0,1,0-70.25Zm21.88,61.74a72.35,72.35,0,0,0,11,23.63,56.18,56.18,0,0,0,19.26,16.87q11.75,6.39,28,6.38t28-6.38a56.15,56.15,0,0,0,19.25-16.87,72.37,72.37,0,0,0,11-23.63,102.94,102.94,0,0,0,0-53.23,72.37,72.37,0,0,0-11-23.63,56.15,56.15,0,0,0-19.25-16.87q-11.76-6.39-28-6.38t-28,6.38a56.18,56.18,0,0,0-19.26,16.87,72.35,72.35,0,0,0-11,23.63,102.94,102.94,0,0,0,0,53.23Z"/><path class="cls-1" d="M4248.46,3076.81l-40.74-150h-.51l-41.23,150h-24.77l-45.73-178.49h24.24l35,148.49h.49l40-148.49H4221l39.49,148.49h.51l36.24-148.49H4321l-47.75,178.49Z"/><path class="cls-1" d="M4461,2898.32l69.75,178.49h-26.25l-19.5-53.74h-75.49l-20,53.74h-24.24l69.49-178.49Zm16.5,104.74-29.74-83.23h-.51L4417,3003.06Z"/><path class="cls-1" d="M4621.69,2898.32v178.49h-23.75V2898.32Z"/></g></g></svg>